<svg width="18" height="18" viewBox="0 0 18 18" fill="none" xmlns="http://www.w3.org/2000/svg">
<path d="M16.25 2C16.25 1.86193 16.1381 1.75 16 1.75H2C1.86193 1.75 1.75 1.86193 1.75 2V4.1416C1.75007 4.20781 1.77642 4.27154 1.82324 4.31836L7.45996 9.9541C7.78815 10.2823 7.97266 10.7283 7.97266 11.1924V15.1885L10.0273 13.1338V11.1924C10.0273 10.7283 10.2119 10.2823 10.54 9.9541L16.1768 4.31836C16.2236 4.27154 16.2499 4.20781 16.25 4.1416V2ZM17.75 4.1416C17.7499 4.60564 17.5654 5.05078 17.2373 5.37891L11.6006 11.0156C11.554 11.0625 11.5273 11.1263 11.5273 11.1924V13.4443C11.5273 13.6431 11.449 13.834 11.3086 13.9746L7.75293 17.5303C7.53855 17.7447 7.2157 17.8092 6.93555 17.6934C6.65529 17.5773 6.47266 17.3033 6.47266 17V11.1924C6.47266 11.1263 6.44604 11.0625 6.39941 11.0156L0.762695 5.37891C0.434567 5.05078 0.250069 4.60564 0.25 4.1416V2C0.25 1.0335 1.0335 0.25 2 0.25H16C16.9665 0.25 17.75 1.0335 17.75 2V4.1416Z" fill="#FAFCFF"/>
</svg>
