<svg width="20" height="20" viewBox="0 0 20 20" fill="none" xmlns="http://www.w3.org/2000/svg">
<path d="M7.59569 2.14063C8.20759 -0.379866 11.7924 -0.379863 12.4043 2.14063C12.56 2.78148 13.2942 3.08536 13.8574 2.74219C16.0723 1.39261 18.6074 3.92765 17.2578 6.14258C16.9146 6.70582 17.2185 7.43995 17.8594 7.59571C20.3799 8.20761 20.3799 11.7924 17.8594 12.4043C17.2185 12.5601 16.9146 13.2942 17.2578 13.8574C18.6074 16.0724 16.0723 18.6074 13.8574 17.2578C13.2942 16.9147 12.56 17.2185 12.4043 17.8594C11.7924 20.3799 8.20759 20.3799 7.59569 17.8594C7.43994 17.2185 6.70581 16.9147 6.14257 17.2578C3.92763 18.6074 1.39259 16.0724 2.74218 13.8574C3.08535 13.2942 2.78146 12.5601 2.14062 12.4043C-0.379879 11.7924 -0.379881 8.20761 2.14062 7.59571C2.78146 7.43995 3.08535 6.70582 2.74218 6.14258C1.39259 3.92765 3.92763 1.39261 6.14257 2.74219C6.70581 3.08536 7.43994 2.78148 7.59569 2.14063ZM10.9463 2.49415C10.7053 1.50203 9.29471 1.50203 9.0537 2.49415C8.65845 4.12224 6.79308 4.89495 5.3623 4.02344C4.49027 3.49211 3.49209 4.49028 4.02343 5.36231C4.89494 6.79309 4.12222 8.65847 2.49413 9.05372C1.50202 9.29472 1.50201 10.7053 2.49413 10.9463C4.12222 11.3415 4.89493 13.2069 4.02343 14.6377C3.49209 15.5097 4.49027 16.5079 5.3623 15.9766C6.79308 15.1051 8.65845 15.8778 9.0537 17.5059C9.29471 18.498 10.7053 18.498 10.9463 17.5059C11.3415 15.8778 13.2069 15.1051 14.6377 15.9766C15.5097 16.5079 16.5079 15.5097 15.9766 14.6377C15.105 13.2069 15.8778 11.3415 17.5059 10.9463C18.498 10.7053 18.498 9.29472 17.5059 9.05372C15.8778 8.65847 15.105 6.79309 15.9766 5.36231C16.5079 4.49028 15.5097 3.49211 14.6377 4.02344C13.2069 4.89495 11.3415 4.12223 10.9463 2.49415ZM12.25 10C12.25 8.75737 11.2426 7.75001 9.99999 7.75001C8.75735 7.75001 7.74999 8.75737 7.74999 10C7.74999 11.2426 8.75735 12.25 9.99999 12.25C11.2426 12.25 12.25 11.2426 12.25 10ZM13.75 10C13.75 12.0711 12.0711 13.75 9.99999 13.75C7.92892 13.75 6.24999 12.0711 6.24999 10C6.24999 7.92894 7.92892 6.25001 9.99999 6.25001C12.0711 6.25001 13.75 7.92894 13.75 10Z" fill="#FAFCFF"/>
</svg>
